<?xml version="1.0" encoding="UTF-8"?>
<svg version="1.1" xmlns="http://www.w3.org/2000/svg" width="60" height="51">
<path d="M0 0 C1.2065625 0.2475 1.2065625 0.2475 2.4375 0.5 C6.62975438 1.08838658 10.77178559 1.30265114 15 1 C15.33 0.67 15.66 0.34 16 0 C22.52542373 -0.23728814 22.52542373 -0.23728814 25 1 C26.49756871 1.09499503 27.99942932 1.12987198 29.5 1.125 C30.2940625 1.12757812 31.088125 1.13015625 31.90625 1.1328125 C34.05918534 1.13277996 34.05918534 1.13277996 36 0 C38.69013339 -0.18704404 41.29686177 -0.08581391 44 0 C44.495 0.495 44.495 0.495 45 1 C50.07454515 1.3632306 55.01657457 1.02224111 60 0 C59.8125 1.875 59.8125 1.875 59 4 C54.75553131 6.65279293 49.84347551 6.46291624 45 6 C43.9275 5.62875 42.855 5.2575 41.75 4.875 C38.268938 3.76738936 37.28670497 4.59141215 34 6 C29.49384734 6.29071953 26.58701387 6.17610416 22.25 4.875 C18.45103102 3.85220066 18.26892904 4.31002536 15 6 C9.67735559 6.6580724 4.9773178 6.04197653 0 4 C0 2.68 0 1.36 0 0 Z " fill="#FFFFFF" transform="translate(0,29)"/>
<path d="M0 0 C3.05973454 0.50995576 6.09462241 1.02081693 9.125 1.6875 C11.91623574 2.25330634 11.91623574 2.25330634 13.875 1.0625 C17.14615493 -0.57307747 20.40670523 -0.39511333 24 0 C25.33333333 0.66666667 26.66666667 1.33333333 28 2 C30.97524961 1.70247504 33.32241195 1.33879403 36 0 C40.90067466 -0.23712942 43.66144026 -0.24408262 48 2 C50.39388923 1.72197162 50.39388923 1.72197162 53 1 C55.33177975 0.65596692 57.66487041 0.32050798 60 0 C60 1.32 60 2.64 60 4 C55.06215348 5.97513861 51.2372694 6.26186347 46 6 C45.34 5.67 44.68 5.34 44 5 C42.08499697 4.84101146 42.08499697 4.84101146 40 4.875 C39.29875 4.87242188 38.5975 4.86984375 37.875 4.8671875 C35.90846225 4.88622764 35.90846225 4.88622764 34 6 C32.48154798 6.09472912 30.95889616 6.1298841 29.4375 6.125 C28.22900391 6.12886719 28.22900391 6.12886719 26.99609375 6.1328125 C25 6 25 6 24 5 C18.82264323 4.62947661 18.82264323 4.62947661 14 6 C8.7627306 6.26186347 4.93784652 5.97513861 0 4 C0 2.68 0 1.36 0 0 Z " fill="#FFFFFF" transform="translate(0,44)"/>
<path d="M0 0 C0.61875 0.165 1.2375 0.33 1.875 0.5 C7.58760639 1.41401702 13.2207388 1.25418017 18.9375 0.4375 C22 0 22 0 25 1 C30.4698805 1.32009628 35.60665861 0.92081438 41 0 C41.99 0.33 42.98 0.66 44 1 C45.78967404 1.09419337 47.58285563 1.12990998 49.375 1.125 C50.31085937 1.12757812 51.24671875 1.13015625 52.2109375 1.1328125 C54.90729747 1.00441441 57.37271509 0.60188709 60 0 C60 1.32 60 2.64 60 4 C54.72227325 5.80031405 50.82577677 6.09921526 45.1875 5.5625 C39.75341658 5.10310586 34.69533315 5.08925309 29.2890625 5.8125 C25.96394697 6.08486441 22.80997525 5.60299528 19.51171875 5.18359375 C16.84262296 4.98849655 14.4625372 5.21370539 11.8125 5.5625 C7.30081864 6.1326967 4.24793781 5.56989006 0 4 C0 2.68 0 1.36 0 0 Z " fill="#FFFFFF" transform="translate(0,14)"/>
<path d="M0 0 C4.18524749 -0.08206368 7.91081136 0.15810822 12 1 C12.33 0.67 12.66 0.34 13 0 C15.08135137 -0.0999519 17.16625528 -0.12967207 19.25 -0.125 C20.38953125 -0.12757812 21.5290625 -0.13015625 22.703125 -0.1328125 C26 0 26 0 28.734375 0.5703125 C31.15320347 1.21974392 31.15320347 1.21974392 34 0 C35.95648317 -0.09475844 37.91622955 -0.12988471 39.875 -0.125 C41.41800781 -0.12886719 41.41800781 -0.12886719 42.9921875 -0.1328125 C46 0 46 0 48.58203125 0.53515625 C51.18142895 1.03487891 53.19844696 0.91364145 55.8125 0.5625 C56.99779297 0.40974609 56.99779297 0.40974609 58.20703125 0.25390625 C58.79871094 0.17011719 59.39039063 0.08632813 60 0 C60 0.99 60 1.98 60 3 C55.06215348 4.97513861 51.2372694 5.26186347 46 5 C45.34 4.67 44.68 4.34 44 4 C42.08499697 3.84101146 42.08499697 3.84101146 40 3.875 C39.29875 3.87242188 38.5975 3.86984375 37.875 3.8671875 C35.90846225 3.88622764 35.90846225 3.88622764 34 5 C32.125 5.1328125 32.125 5.1328125 30 5.125 C28.948125 5.12886719 28.948125 5.12886719 27.875 5.1328125 C26 5 26 5 24 4 C22.08499697 3.84101146 22.08499697 3.84101146 20 3.875 C19.29875 3.87242188 18.5975 3.86984375 17.875 3.8671875 C15.90846225 3.88622764 15.90846225 3.88622764 14 5 C8.7627306 5.26186347 4.93784652 4.97513861 0 3 C0 2.01 0 1.02 0 0 Z " fill="#FFFFFF" transform="translate(0,0)"/>
</svg>
