<?xml version="1.0" encoding="UTF-8"?>
<svg version="1.1" xmlns="http://www.w3.org/2000/svg" width="58" height="58">
<path d="M0 0 C6.21022081 3.77380156 11.12756342 9.38269026 13.4375 16.3125 C14.22156386 26.42820911 13.68012962 33.26721072 7.125 41.0625 C-1.03398069 47.89327453 -8.04443814 49.1437848 -18.5625 48.3125 C-25.45677792 46.35183982 -30.25252192 41.75324798 -33.8125 35.625 C-37.40008429 28.83421544 -37.98385128 21.31040367 -35.84375 13.78515625 C-32.7241325 7.23144369 -27.69627052 3.04609945 -21.5625 -0.6875 C-15.0001512 -2.8749496 -6.32398032 -3.0044964 0 0 Z M-29.5625 13.3125 C-32.36899559 17.82729725 -32.07838107 23.15368933 -31.5625 28.3125 C-29.67348873 33.97953381 -24.98796115 39.59976942 -19.5625 42.3125 C-9.92959116 43.39587238 -9.92959116 43.39587238 -0.83203125 40.890625 C1.16804993 39.13445616 2.81482631 37.41897877 4.4375 35.3125 C4.98535156 34.735 5.53320312 34.1575 6.09765625 33.5625 C9.18584108 28.37651031 8.25092029 21.09236674 7.4375 15.3125 C5.63440709 11.8787411 3.49072072 9.66447287 0.4375 7.3125 C-0.23796875 6.77238281 -0.9134375 6.23226563 -1.609375 5.67578125 C-11.77250996 -1.41808695 -22.7073263 5.22737429 -29.5625 13.3125 Z " fill="#FFFFFF" transform="translate(40.5625,5.6875)"/>
<path d="M0 0 C0.99 0 1.98 0 3 0 C3.67031719 1.9570868 4.33614683 3.91571113 5 5.875 C5.556875 7.51082031 5.556875 7.51082031 6.125 9.1796875 C7 12 7 12 7 14 C7.66 14 8.32 14 9 14 C9.66 17.3 10.32 20.6 11 24 C9.35 24.33 7.7 24.66 6 25 C5.67 23.35 5.34 21.7 5 20 C4.34 20 3.68 20 3 20 C2.51849058 17.95888458 2.03989917 15.91708068 1.5625 13.875 C1.16224609 12.16957031 1.16224609 12.16957031 0.75390625 10.4296875 C0.06349326 7.288845 -0.58826559 4.18975852 -1 1 C-0.67 0.67 -0.34 0.34 0 0 Z " fill="#FFFFFF" transform="translate(23,12)"/>
<path d="M0 0 C2.97 0.495 2.97 0.495 6 1 C5.67 2.65 5.34 4.3 5 6 C3.0625 6.5625 3.0625 6.5625 1 7 C0 6 0 6 -0.0625 2.9375 C-0.041875 1.968125 -0.02125 0.99875 0 0 Z " fill="#FFFFFF" transform="translate(31,12)"/>
<path d="M0 0 C2.475 0.99 2.475 0.99 5 2 C4.67 3.32 4.34 4.64 4 6 C3.01 6 2.02 6 1 6 C0.34 4.35 -0.32 2.7 -1 1 C-0.67 0.67 -0.34 0.34 0 0 Z " fill="#FFFFFF" transform="translate(38,35)"/>
<path d="M0 0 C0.99 0.33 1.98 0.66 3 1 C2.34 2.65 1.68 4.3 1 6 C0.01 6 -0.98 6 -2 6 C-2.33 4.68 -2.66 3.36 -3 2 C-2.01 1.34 -1.02 0.68 0 0 Z " fill="#FFFFFF" transform="translate(18,35)"/>
<path d="M0 0 C-0.33 1.32 -0.66 2.64 -1 4 C-3.31 3.67 -5.62 3.34 -8 3 C-7.67 2.01 -7.34 1.02 -7 0 C-4.05610218 -1.17755913 -3.10046087 -1.03348696 0 0 Z " fill="#FFFFFF" transform="translate(47,28)"/>
<path d="M0 0 C2.00720923 0.28674418 4.0085944 0.61866701 6 1 C6.33 1.99 6.66 2.98 7 4 C4.69 4.33 2.38 4.66 0 5 C-0.5625 3.0625 -0.5625 3.0625 -1 1 C-0.67 0.67 -0.34 0.34 0 0 Z " fill="#FFFFFF" transform="translate(12,27)"/>
<path d="M0 0 C2.125 0.375 2.125 0.375 4 1 C3.67 2.32 3.34 3.64 3 5 C1.68 5.33 0.36 5.66 -1 6 C-1.625 4.125 -1.625 4.125 -2 2 C-1.34 1.34 -0.68 0.68 0 0 Z " fill="#FFFFFF" transform="translate(40,18)"/>
<path d="M0 0 C1.98 0.495 1.98 0.495 4 1 C4.33 2.32 4.66 3.64 5 5 C4.01 5.33 3.02 5.66 2 6 C1.01 5.34 0.02 4.68 -1 4 C-0.67 2.68 -0.34 1.36 0 0 Z " fill="#FFFFFF" transform="translate(15,18)"/>
</svg>
