<?xml version="1.0" encoding="UTF-8"?>
<svg version="1.1" xmlns="http://www.w3.org/2000/svg" width="48" height="48">
<path d="M0 0 C3.91650361 0.79141783 5.62452456 2.48173524 8.26171875 5.45703125 C8.26171875 6.77703125 8.26171875 8.09703125 8.26171875 9.45703125 C12.88171875 9.45703125 17.50171875 9.45703125 22.26171875 9.45703125 C22.26171875 10.11703125 22.26171875 10.77703125 22.26171875 11.45703125 C6.42171875 11.45703125 -9.41828125 11.45703125 -25.73828125 11.45703125 C-25.73828125 10.79703125 -25.73828125 10.13703125 -25.73828125 9.45703125 C-21.11828125 9.45703125 -16.49828125 9.45703125 -11.73828125 9.45703125 C-11.40828125 7.80703125 -11.07828125 6.15703125 -10.73828125 4.45703125 C-7.92255406 0.1161185 -4.86648291 -0.21718188 0 0 Z M-5.73828125 4.45703125 C-6.39828125 6.10703125 -7.05828125 7.75703125 -7.73828125 9.45703125 C-3.77828125 9.45703125 0.18171875 9.45703125 4.26171875 9.45703125 C2.68335577 5.77325902 2.68335577 5.77325902 1.26171875 4.45703125 C-1.07125558 4.41610188 -3.4053335 4.41461402 -5.73828125 4.45703125 Z " fill="#FFFFFF" transform="translate(25.73828125,36.54296875)"/>
<path d="M0 0 C3.90938504 1.30312835 6.41779075 2.74832909 9 6 C9 7.32 9 8.64 9 10 C6.13275314 9.42655063 5.1385485 9.1385485 3 7 C2.67 11.62 2.34 16.24 2 21 C1.34 21 0.68 21 0 21 C-0.33 16.38 -0.66 11.76 -1 7 C-1.99 7.99 -2.98 8.98 -4 10 C-4.99 10 -5.98 10 -7 10 C-6.84518205 7.29068581 -6.51827919 5.53415961 -4.59765625 3.5546875 C-3.10228292 2.32320358 -1.5537076 1.1570163 0 0 Z " fill="#FFFFFF" transform="translate(23,0)"/>
<path d="M0 0 C0.99 0.33 1.98 0.66 3 1 C2.46104623 4.7726764 1.00464642 6.68212991 -2 9 C-4.25 8.75 -4.25 8.75 -6 8 C-5.66354211 4.85972637 -4.94763914 3.94901705 -2.625 1.6875 C-1.75875 1.130625 -0.8925 0.57375 0 0 Z " fill="#FFFFFF" transform="translate(37,31)"/>
<path d="M0 0 C5.99725275 2.10714286 5.99725275 2.10714286 8 5 C7.6875 7.1875 7.6875 7.1875 7 9 C3.2273236 8.46104623 1.31787009 7.00464642 -1 4 C-0.75 1.75 -0.75 1.75 0 0 Z " fill="#FFFFFF" transform="translate(9,31)"/>
<path d="M0 0 C0.66 0 1.32 0 2 0 C2 2.97 2 5.94 2 9 C1.34 9 0.68 9 0 9 C0 6.03 0 3.06 0 0 Z " fill="#FFFFFF" transform="translate(23,26)"/>
</svg>
