<?xml version="1.0" encoding="UTF-8"?>
<svg version="1.1" xmlns="http://www.w3.org/2000/svg" width="48" height="49">
<path d="M0 0 C2.63441089 1.4091035 3.9301648 2.72318128 6 5 C6 6.32 6 7.64 6 9 C10.62 9 15.24 9 20 9 C20 9.99 20 10.98 20 12 C4.16 12 -11.68 12 -28 12 C-28 11.01 -28 10.02 -28 9 C-23.38 9 -18.76 9 -14 9 C-13.67 7.35 -13.34 5.7 -13 4 C-9.31919032 -0.12696843 -5.3558817 -1.22151688 0 0 Z M-8.875 5.375 C-10.18973666 6.94466014 -10.18973666 6.94466014 -10 9 C-6.04 9 -2.08 9 2 9 C0.42163702 5.31622777 0.42163702 5.31622777 -1 4 C-5.21400035 3.57380299 -5.21400035 3.57380299 -8.875 5.375 Z " fill="#FFFFFF" transform="translate(28,37)"/>
<path d="M0 0 C0.66 0 1.32 0 2 0 C2.33 4.62 2.66 9.24 3 14 C3.99 12.68 4.98 11.36 6 10 C6.99 10 7.98 10 9 10 C8.68232368 15.40049736 5.80003673 17.52337065 2 21 C-1.82964655 19.43977363 -4.32190489 17.12444429 -7 14 C-7 12.68 -7 11.36 -7 10 C-2.125 11.875 -2.125 11.875 -1 13 C-0.67 8.71 -0.34 4.42 0 0 Z " fill="#FFFFFF" transform="translate(23,0)"/>
<path d="M0 0 C0.86625 0.3403125 0.86625 0.3403125 1.75 0.6875 C0.4751791 3.53133123 -0.70137078 5.82504018 -3.25 7.6875 C-5.4375 7.375 -5.4375 7.375 -7.25 6.6875 C-6.87492618 3.96821483 -6.40781339 2.84531339 -4.4375 0.875 C-2.25 -0.3125 -2.25 -0.3125 0 0 Z " fill="#FFFFFF" transform="translate(38.25,32.3125)"/>
<path d="M0 0 C2.71675995 0.36712972 4.61063713 0.72744599 6.875 2.3125 C8 4 8 4 7.6875 6.1875 C7.3471875 7.0846875 7.3471875 7.0846875 7 8 C3.20411134 7.45773019 1.52788007 5.79872437 -1 3 C-0.67 2.01 -0.34 1.02 0 0 Z " fill="#FFFFFF" transform="translate(9,32)"/>
<path d="M0 0 C0.66 0 1.32 0 2 0 C2 2.64 2 5.28 2 8 C1.34 8 0.68 8 0 8 C0 5.36 0 2.72 0 0 Z " fill="#FFFFFF" transform="translate(23,27)"/>
</svg>
