<?xml version="1.0" encoding="UTF-8"?>
<svg version="1.1" xmlns="http://www.w3.org/2000/svg" width="58" height="58">
<path d="M0 0 C0.7940625 -0.00773438 1.588125 -0.01546875 2.40625 -0.0234375 C10.47059112 0.00344364 10.47059112 0.00344364 14 2.25 C15.63666522 4.48735618 16.94453519 6.5249006 18.25 8.9375 C18.600625 9.53755859 18.95125 10.13761719 19.3125 10.75585938 C21.6151591 14.8785048 22.94193587 18.44123413 23 23.25 C22.14011066 26.18861266 20.85812266 28.79501334 19.4375 31.5 C19.10169922 32.20640625 18.76589844 32.9128125 18.41992188 33.640625 C16.7084905 37.00612133 15.38544098 38.97159515 12.28515625 41.2109375 C8.08703966 42.53876034 4.37579214 42.68998701 0 42.625 C-1.17175781 42.64240234 -1.17175781 42.64240234 -2.3671875 42.66015625 C-7.27182326 42.63538536 -10.90621503 42.20694972 -15 39.25 C-16.82724472 36.8158568 -18.13358673 34.24297301 -19.4375 31.5 C-19.98180664 30.46359375 -19.98180664 30.46359375 -20.53710938 29.40625 C-22.87829894 24.64329455 -23.46806413 21.52903876 -22 16.25 C-20.92793058 13.69439428 -19.64709293 11.32848074 -18.25 8.9375 C-17.91484375 8.31810547 -17.5796875 7.69871094 -17.234375 7.06054688 C-15.71709309 4.41392446 -14.38784551 2.4968733 -11.796875 0.84765625 C-7.8405132 0.00223257 -4.03464777 -0.03929852 0 0 Z M-11 4.625 C-12.17469914 6.21587907 -12.17469914 6.21587907 -12 8.25 C-11.34 8.25 -10.68 8.25 -10 8.25 C-10 8.91 -10 9.57 -10 10.25 C-7.04335481 11.7283226 -4.25770263 11.31032783 -1 11.25 C-1 8.61 -1 5.97 -1 3.25 C-6.31010295 2.74324413 -6.31010295 2.74324413 -11 4.625 Z M1 3.25 C1 5.89 1 8.53 1 11.25 C3.64 11.25 6.28 11.25 9 11.25 C9.33 10.26 9.66 9.27 10 8.25 C10.66 8.25 11.32 8.25 12 8.25 C10.77992056 5.5594472 10.77992056 5.5594472 9 3.25 C6.32941149 3.10884839 3.67567762 3.20752893 1 3.25 Z M-14 10.25 C-18.4219159 15.76249084 -18.4219159 15.76249084 -20.1875 22.375 C-18.6186041 26.17337955 -16.52837449 29.00849424 -14 32.25 C-12.68 31.59 -11.36 30.93 -10 30.25 C-10 27.61 -10 24.97 -10 22.25 C-12.64 22.25 -15.28 22.25 -18 22.25 C-18 21.59 -18 20.93 -18 20.25 C-15.36 20.25 -12.72 20.25 -10 20.25 C-10 17.61 -10 14.97 -10 12.25 C-11.32 11.59 -12.64 10.93 -14 10.25 Z M9 13.25 C9.33 15.56 9.66 17.87 10 20.25 C12.64 20.25 15.28 20.25 18 20.25 C18 20.91 18 21.57 18 22.25 C15.36 22.25 12.72 22.25 10 22.25 C9.67 24.56 9.34 26.87 9 29.25 C10.65 30.24 12.3 31.23 14 32.25 C17.57010511 27.96587386 19.84891287 24.94817387 19.50390625 19.25 C18.56741881 15.53308863 16.46850349 13.1399553 14 10.25 C12.03177114 10.25 10.49471455 12.09280164 9 13.25 Z M-3.8125 14.375 C-5.32170103 16.33282518 -5.32170103 16.33282518 -4.6875 19.4375 C-4.460625 20.365625 -4.23375 21.29375 -4 22.25 C-3.67 22.25 -3.34 22.25 -3 22.25 C-3 20.27 -3 18.29 -3 16.25 C-1.125 16.5625 -1.125 16.5625 1 17.25 C1.99 18.735 1.99 18.735 3 20.25 C3.66 18.6 4.32 16.95 5 15.25 C1.76710503 13.09473668 -0.29873641 12.19404329 -3.8125 14.375 Z M-8 19.25 C-7 23.25 -7 23.25 -7 23.25 Z M7 19.25 C6.690625 20.219375 6.38125 21.18875 6.0625 22.1875 C4 25.25 4 25.25 1.796875 25.87109375 C-0.47938084 26.10372996 -2.71243399 26.24040853 -5 26.25 C-3.68405213 27.8111962 -3.68405213 27.8111962 -2 29.25 C1.97515319 29.25 3.53634224 28.68988044 6.4375 25.9375 C8.25053531 23.42997958 8.25053531 23.42997958 7.75 20.9375 C7.5025 20.380625 7.255 19.82375 7 19.25 Z M-8 30.25 C-8.66 31.57 -9.32 32.89 -10 34.25 C-10.66 34.25 -11.32 34.25 -12 34.25 C-10.77992056 36.9405528 -10.77992056 36.9405528 -9 39.25 C-6.32941149 39.39115161 -3.67567762 39.29247107 -1 39.25 C-1 36.61 -1 33.97 -1 31.25 C-3.31 30.92 -5.62 30.59 -8 30.25 Z M1 31.25 C1 33.89 1 36.53 1 39.25 C6.31010295 39.75675587 6.31010295 39.75675587 11 37.875 C12.17469914 36.28412093 12.17469914 36.28412093 12 34.25 C11.34 34.25 10.68 34.25 10 34.25 C9.34 32.93 8.68 31.61 8 30.25 C5.37886292 30.25 3.49064888 30.56292445 1 31.25 Z " fill="#FFFFFF" transform="translate(29,7.75)"/>
<path d="M0 0 C1.18013672 -0.01611328 2.36027344 -0.03222656 3.57617188 -0.04882812 C4.71505859 -0.04947266 5.85394531 -0.05011719 7.02734375 -0.05078125 C8.0649585 -0.05376221 9.10257324 -0.05674316 10.17163086 -0.05981445 C13.53223912 0.37299761 15.37119609 1.27473561 18.0625 3.3125 C19.05407426 5.16343861 20.0319575 7.02561486 20.8828125 8.9453125 C22.27411845 11.73713834 24.01527526 14.13962717 25.8125 16.6875 C29.20463444 21.91007958 30.30105133 26.16358588 29.0625 32.3125 C28.02734375 34.59765625 28.02734375 34.59765625 27.0625 36.3125 C26.4025 36.3125 25.7425 36.3125 25.0625 36.3125 C24.815 37.158125 24.5675 38.00375 24.3125 38.875 C22.09648407 44.96904381 19.12239893 51.28255053 13.0625 54.3125 C8.77572051 54.55667325 4.48044848 54.49770431 0.1875 54.5 C-1.60880859 54.51836914 -1.60880859 54.51836914 -3.44140625 54.53710938 C-4.59253906 54.53904297 -5.74367188 54.54097656 -6.9296875 54.54296875 C-7.98526855 54.54707764 -9.04084961 54.55118652 -10.12841797 54.55541992 C-12.99839814 54.30723373 -14.57364991 53.92969906 -16.9375 52.3125 C-18.17016602 50.68017578 -18.17016602 50.68017578 -19.19140625 48.7578125 C-19.57103516 48.06042969 -19.95066406 47.36304688 -20.34179688 46.64453125 C-20.72400391 45.91621094 -21.10621094 45.18789063 -21.5 44.4375 C-22.2695342 43.00120746 -23.0416009 41.5662684 -23.81640625 40.1328125 C-24.35950439 39.12323486 -24.35950439 39.12323486 -24.91357422 38.09326172 C-25.96265734 36.17484263 -25.96265734 36.17484263 -27.66796875 34.078125 C-29.73792026 31.19930014 -29.70615257 28.77562211 -29.62890625 25.3046875 C-28.41502419 20.05138998 -25.27768083 15.95991853 -22.19921875 11.609375 C-19.87675681 8.41574877 -19.87675681 8.41574877 -18.39453125 5.015625 C-14.74541919 -1.75430944 -6.71840873 -0.01828636 0 0 Z M-16.9375 8.3125 C-18.33497492 10.3228124 -18.33497492 10.3228124 -19.25 12.4375 C-19.57613281 13.12070313 -19.90226562 13.80390625 -20.23828125 14.5078125 C-21.05792573 16.3007515 -21.05792573 16.3007515 -20.9375 18.3125 C-21.5975 18.3125 -22.2575 18.3125 -22.9375 18.3125 C-22.9375 19.3025 -22.9375 20.2925 -22.9375 21.3125 C-23.5975 21.3125 -24.2575 21.3125 -24.9375 21.3125 C-26.55274896 28.45530947 -25.15040506 32.10842425 -21.5 38.3125 C-21.06623047 39.08722656 -20.63246094 39.86195312 -20.18554688 40.66015625 C-19.12130187 42.55474625 -18.03189964 44.43516728 -16.9375 46.3125 C-16.2775 46.3125 -15.6175 46.3125 -14.9375 46.3125 C-14.6075 47.3025 -14.2775 48.2925 -13.9375 49.3125 C-9.83939901 51.36155049 -4.62942814 50.62971725 -0.125 50.6875 C0.96876953 50.72488281 2.06253906 50.76226562 3.18945312 50.80078125 C9.48807486 50.93812303 9.48807486 50.93812303 15.01953125 48.28515625 C17.47506211 44.71219453 19.80600089 41.15069827 21.9375 37.375 C22.56011719 36.33956055 22.56011719 36.33956055 23.1953125 35.28320312 C25.06612716 31.99368734 26.07684893 29.99534008 25.99609375 26.15234375 C23.52147583 18.6249495 18.78345748 8.79313832 12.0625 4.3125 C8.11952323 3.8476553 4.15493699 3.94216209 0.1875 3.9375 C-0.90175781 3.91300781 -1.99101562 3.88851563 -3.11328125 3.86328125 C-10.92254646 3.72743968 -10.92254646 3.72743968 -16.9375 8.3125 Z " fill="#FFFFFF" transform="translate(28.9375,1.6875)"/>
</svg>
