<?xml version="1.0" encoding="UTF-8"?>
<svg version="1.1" xmlns="http://www.w3.org/2000/svg" width="60" height="60">
<path d="M0 0 C0.93825119 -0.01283524 1.87650238 -0.02567047 2.84318542 -0.03889465 C3.86084488 -0.04628159 4.87850433 -0.05366852 5.92700195 -0.0612793 C7.49596977 -0.07338692 7.49596977 -0.07338692 9.09663391 -0.08573914 C11.31505675 -0.09958859 13.53350097 -0.11030688 15.75195312 -0.11816406 C19.13428602 -0.13534063 22.51563241 -0.17921567 25.89770508 -0.22338867 C28.05329685 -0.2335187 30.20889693 -0.24203383 32.36450195 -0.2487793 C33.8758094 -0.27504143 33.8758094 -0.27504143 35.41764832 -0.30183411 C42.59606507 -0.27982082 47.09195745 0.90864363 52.3918457 6.0246582 C53.88071322 8.97561504 53.87562166 11.32195799 53.8527832 14.61450195 C53.86438477 16.28319336 53.86438477 16.28319336 53.8762207 17.9855957 C53.43441205 21.52439636 52.63518391 23.35957454 50.4777832 26.17700195 C46.97802995 28.83224953 43.28414714 30.04740775 38.9777832 30.73950195 C33.31067282 29.82871636 29.21591985 27.18672245 25.4777832 22.86450195 C24.07837729 19.10359856 24.21083216 16.1812676 24.4777832 12.17700195 C24.8077832 11.84700195 25.1377832 11.51700195 25.4777832 11.17700195 C24.57946777 11.15718262 23.68115234 11.13736328 22.75561523 11.11694336 C19.42688242 11.03890934 16.09861065 10.95222081 12.77026367 10.85961914 C11.3289458 10.82130522 9.88753152 10.78645652 8.44604492 10.75512695 C6.37554434 10.70952749 4.30570888 10.65152752 2.2355957 10.59106445 C0.9892334 10.55964355 -0.25712891 10.52822266 -1.54125977 10.49584961 C-4.5222168 10.17700195 -4.5222168 10.17700195 -6.5222168 8.17700195 C-6.6472168 4.55200195 -6.6472168 4.55200195 -6.5222168 1.17700195 C-4.14585492 -0.01117899 -2.6522763 0.0315653 0 0 Z M-3.5222168 4.17700195 C-3.1922168 4.83700195 -2.8622168 5.49700195 -2.5222168 6.17700195 C-1.96733582 6.18286819 -1.41245483 6.18873444 -0.84075928 6.19477844 C4.93454025 6.25871287 10.70928255 6.34313235 16.48413086 6.43945312 C18.63932956 6.47270736 20.79461546 6.50073772 22.94995117 6.5234375 C26.04814817 6.55697395 29.14554575 6.60928998 32.2434082 6.6652832 C33.68892059 6.67486809 33.68892059 6.67486809 35.16363525 6.68464661 C36.06426697 6.70444077 36.96489868 6.72423492 37.89282227 6.74462891 C38.68335999 6.75573196 39.47389771 6.76683502 40.28839111 6.77827454 C43.04092514 7.27956016 44.44183281 8.28462944 46.4777832 10.17700195 C47.0871582 12.6574707 47.0871582 12.6574707 47.2277832 15.36450195 C47.28450195 16.26555664 47.3412207 17.16661133 47.3996582 18.0949707 C47.42543945 18.78204102 47.4512207 19.46911133 47.4777832 20.17700195 C48.1377832 20.17700195 48.7977832 20.17700195 49.4777832 20.17700195 C50.77394592 13.88849161 50.77394592 13.88849161 48.4777832 8.17700195 C47.8177832 8.17700195 47.1577832 8.17700195 46.4777832 8.17700195 C46.4777832 7.51700195 46.4777832 6.85700195 46.4777832 6.17700195 C41.52544868 3.53879978 36.60093834 3.92294063 31.14575195 3.98168945 C30.15400467 3.98451935 29.16225739 3.98734924 28.14045715 3.99026489 C24.98194161 4.00143392 21.82371263 4.02653269 18.6652832 4.05200195 C16.52010502 4.06203598 14.37492237 4.07116109 12.22973633 4.0793457 C6.97898799 4.10136251 1.72840608 4.13480753 -3.5222168 4.17700195 Z M31.4777832 10.17700195 C32.1377832 10.83700195 32.7977832 11.49700195 33.4777832 12.17700195 C34.14444987 14.17700195 34.81111654 16.17700195 35.4777832 18.17700195 C36.1377832 18.83700195 36.7977832 19.49700195 37.4777832 20.17700195 C40.41231581 19.81018538 41.34215566 19.3126295 43.4777832 17.17700195 C43.89444987 14.67700195 43.89444987 14.67700195 43.4777832 12.17700195 C40.27398303 10.04113517 39.45838353 9.9456802 35.7902832 10.05200195 C34.98204102 10.07004883 34.17379883 10.0880957 33.34106445 10.10668945 C32.72618164 10.12989258 32.11129883 10.1530957 31.4777832 10.17700195 Z M28.4777832 14.17700195 C28.05791374 16.46536417 28.05791374 16.46536417 28.4777832 19.17700195 C31.04255735 22.24048218 33.59283744 24.99974566 37.4777832 26.17700195 C40.63403967 26.02637265 40.63403967 26.02637265 43.4777832 25.17700195 C43.8077832 24.51700195 44.1377832 23.85700195 44.4777832 23.17700195 C43.2402832 23.23887695 42.0027832 23.30075195 40.7277832 23.36450195 C37.99895943 23.35003822 36.60611632 23.23779132 34.1027832 22.05200195 C31.99750708 19.6228372 31.29897822 17.25648327 30.4777832 14.17700195 C29.8177832 14.17700195 29.1577832 14.17700195 28.4777832 14.17700195 Z M46.4777832 20.17700195 C45.4877832 20.67200195 45.4877832 20.67200195 44.4777832 21.17700195 C44.4777832 21.83700195 44.4777832 22.49700195 44.4777832 23.17700195 C45.4677832 22.84700195 46.4577832 22.51700195 47.4777832 22.17700195 C47.1477832 21.51700195 46.8177832 20.85700195 46.4777832 20.17700195 Z " fill="#FFFFFF" transform="translate(6.522216796875,29.822998046875)"/>
<path d="M0 0 C3.25 2.3125 3.25 2.3125 5 5 C5.66 5.99 6.32 6.98 7 8 C7.73391223 13.85584709 8.27633966 19.22730603 4.75 24.125 C3.8425 24.74375 2.935 25.3625 2 26 C1.38698532 26.52632019 0.77397064 27.05264038 0.14237976 27.59490967 C-2.46325215 29.30382621 -3.93335935 29.36931944 -7.02807617 29.35644531 C-8.02558395 29.35944641 -9.02309174 29.36244751 -10.05082703 29.36553955 C-11.65568718 29.34701935 -11.65568718 29.34701935 -13.29296875 29.328125 C-14.39473953 29.32625183 -15.49651031 29.32437866 -16.63166809 29.32244873 C-18.95751986 29.31573099 -21.28336037 29.30182208 -23.60913086 29.28125 C-27.18418784 29.25002893 -30.75880444 29.24027261 -34.33398438 29.234375 C-36.59115125 29.22520786 -38.84831362 29.21483302 -41.10546875 29.203125 C-42.18144821 29.19887512 -43.25742767 29.19462524 -44.36601257 29.19024658 C-45.35406387 29.18063904 -46.34211517 29.17103149 -47.36010742 29.16113281 C-48.23406662 29.15430481 -49.10802582 29.14747681 -50.00846863 29.14044189 C-52 29 -52 29 -53 28 C-53.1328125 26.1875 -53.1328125 26.1875 -53.125 24 C-53.12757812 23.278125 -53.13015625 22.55625 -53.1328125 21.8125 C-53 20 -53 20 -52 19 C-49.71011219 18.84111908 -47.41556559 18.74861927 -45.12109375 18.68359375 C-44.4344313 18.66281265 -43.74776886 18.64203156 -43.04029846 18.62062073 C-40.83947065 18.55505857 -38.63852025 18.49620985 -36.4375 18.4375 C-34.94855486 18.39432108 -33.45962227 18.350707 -31.97070312 18.30664062 C-28.31393447 18.1993707 -24.65702682 18.09812228 -21 18 C-21.33 17.67 -21.66 17.34 -22 17 C-22.51636861 10.90685041 -22.06682422 7.8575956 -18 3 C-13.06922277 -1.72767886 -6.38311333 -0.82338385 0 0 Z M-16 7 C-18.1519437 10.22791555 -18.20086443 11.28400809 -18 15 C-17.34 15 -16.68 15 -16 15 C-15.525625 13.865625 -15.05125 12.73125 -14.5625 11.5625 C-13 8 -13 8 -12 7 C-10.0390625 6.796875 -10.0390625 6.796875 -7.625 6.75 C-6.83351562 6.72421875 -6.04203125 6.6984375 -5.2265625 6.671875 C-3 7 -3 7 -1.23046875 8.265625 C0.25228161 10.35559694 0.37504262 11.45980745 0.3125 14 C0.30863281 14.680625 0.30476563 15.36125 0.30078125 16.0625 C0 18 0 18 -2 21 C-3.97338867 21.39199829 -3.97338867 21.39199829 -6.41796875 21.41650391 C-7.33231689 21.43307037 -8.24666504 21.44963684 -9.1887207 21.46670532 C-10.67311646 21.47158463 -10.67311646 21.47158463 -12.1875 21.4765625 C-13.20094482 21.49214203 -14.21438965 21.50772156 -15.25854492 21.52377319 C-18.50568852 21.57142788 -21.75261603 21.59909768 -25 21.625 C-28.24723135 21.66145341 -31.49433927 21.70205828 -34.74145508 21.74765015 C-36.76465672 21.77493257 -38.78794878 21.79625944 -40.8112793 21.81118774 C-41.72562744 21.82144989 -42.63997559 21.83171204 -43.58203125 21.84228516 C-44.38874268 21.84878082 -45.1954541 21.85527649 -46.02661133 21.86196899 C-48.07687551 21.87855679 -48.07687551 21.87855679 -50 23 C-50 23.66 -50 24.32 -50 25 C-43.43519255 25.20343297 -36.87120181 25.34318036 -30.30395508 25.43945312 C-28.07187529 25.47959786 -25.84000475 25.5341282 -23.60864258 25.60351562 C-20.39351768 25.70096537 -17.18117977 25.74601605 -13.96484375 25.78125 C-12.47693581 25.84318542 -12.47693581 25.84318542 -10.95896912 25.90637207 C-6.84202468 25.90901726 -4.10665575 25.86359712 -0.79031372 23.27563477 C1.9934936 20.20257153 3.77410632 17.94122367 4.75 13.875 C3.43044572 8.81670859 0.25713724 5.83809149 -4 3 C-9.50632943 2.38818562 -12.07695223 3.07695223 -16 7 Z M-12 12 C-12.71927295 14.31765729 -13.3909893 16.65095874 -14 19 C-12.54207116 19.05399736 -11.08357288 19.09279177 -9.625 19.125 C-8.40683594 19.15980469 -8.40683594 19.15980469 -7.1640625 19.1953125 C-4.78657757 19.21370051 -4.78657757 19.21370051 -3 17 C-2.74994614 13.95817107 -2.74994614 13.95817107 -3 11 C-4.11166864 9.66812207 -4.11166864 9.66812207 -6.9375 9.8125 C-10.10892859 9.66721267 -10.10892859 9.66721267 -12 12 Z " fill="#FFFFFF" transform="translate(53,0)"/>
<path d="M0 0 C6.27 0 12.54 0 19 0 C19.33 1.32 19.66 2.64 20 4 C13.07 4 6.14 4 -1 4 C-0.67 2.68 -0.34 1.36 0 0 Z " fill="#FFFFFF" transform="translate(2,14)"/>
<path d="M0 0 C8.91 0 17.82 0 27 0 C27 0.99 27 1.98 27 3 C18.09 3 9.18 3 0 3 C0 2.01 0 1.02 0 0 Z " fill="#FFFFFF" transform="translate(1,41)"/>
<path d="M0 0 C0.99 0.33 1.98 0.66 3 1 C3 1.99 3 2.98 3 4 C1.35 4 -0.3 4 -2 4 C-2 3.01 -2 2.02 -2 1 C-1.34 0.67 -0.68 0.34 0 0 Z " fill="#FFFFFF" transform="translate(25,14)"/>
</svg>
